<svg width="800px" height="800px" viewBox="0 -2.5 256 256" version="1.1" xmlns="http://www.w3.org/2000/svg">
    <g>
        <polygon fill="#7099A6" points="123.9,11.6 123.9,23.2 103.1,23.2 103.1,30.8 123.9,30.8 123.9,54.0 132.1,54.0 132.1,30.8 153.4,30.8 153.4,23.2 132.1,23.2 132.1,0 123.9,0"/>
        <polygon fill="#EB912C" points="55.9,41.1 55.9,58.0 24.4,58.0 24.4,68.6 55.9,68.6 55.9,102.9 67.6,102.9 67.6,68.6 99.6,68.6 99.6,58.0 67.6,58.0 67.6,24.2 55.9,24.2"/>
        <polygon fill="#59879B" points="187.9,41.1 187.9,58.0 156.4,58.0 156.4,69.1 187.9,69.1 187.9,102.9 200.1,102.9 200.1,69.1 231.6,69.1 231.6,58.0 200.1,58.0 200.1,24.2 187.9,24.2"/>
        <polygon fill="#E8762C" points="120.9,98.7 120.9,117.6 85.8,117.6 85.8,131.7 120.9,131.7 120.9,169.5 135.1,169.5 135.1,131.7 170.2,131.7 170.2,117.6 135.1,117.6 135.1,79.7 120.9,79.7"/>
        <polygon fill="#5B6591" points="224.0,108.2 224.0,120.1 202.7,120.1 202.7,129.7 224.0,129.7 224.0,153.4 234.7,153.4 234.7,129.7 256.0,129.7 256.0,120.1 234.7,120.1 234.7,96.4 224.0,96.4"/>
    </g>
</svg>
